<svg width="15" height="27" viewBox="0 0 15 27" fill="none" xmlns="http://www.w3.org/2000/svg">
<path opacity="0.992" fill-rule="evenodd" clip-rule="evenodd" d="M14.549 3.9744C14.4722 3.85117 14.366 3.76166 14.2308 3.7059C11.0106 3.71472 7.78966 3.69876 4.56842 3.65806C4.37835 3.6639 4.18976 3.67519 4.00267 3.69191C3.87591 3.7645 3.81104 3.87371 3.80758 4.02023C3.79773 3.43237 3.79232 2.83951 3.79212 2.24139C3.88363 1.96418 4.07368 1.85323 4.36184 1.90885C7.63167 1.92822 10.9014 1.95094 14.171 1.97702C14.3447 1.98199 14.4705 2.06189 14.5493 2.21644C14.5684 2.80259 14.5684 3.38835 14.549 3.9744Z" fill="#99B8F9"/>
<path opacity="0.992" fill-rule="evenodd" clip-rule="evenodd" d="M14.5605 3.84252C14.5665 4.47723 14.5694 5.11303 14.5683 5.7498C14.4875 6.18906 14.2288 6.44768 13.7924 6.52491C12.5842 6.52897 11.3764 6.52411 10.1688 6.50992C10.1496 13.0555 10.1382 19.601 10.1346 26.1471C10.1149 26.3598 10.0082 26.5075 9.814 26.5904C9.36505 26.6357 8.91778 26.6262 8.47228 26.5613C8.31277 26.4792 8.22391 26.3493 8.20653 26.1709C8.21282 19.6158 8.20665 13.0616 8.18806 6.50798C6.91776 6.53778 5.64866 6.52476 4.38083 6.46855C4.08655 6.34304 3.8977 6.12467 3.81386 5.81375C3.79735 5.19072 3.79912 4.56787 3.81951 3.94564C3.82219 3.7991 3.88648 3.68954 4.01284 3.61628C4.19985 3.59856 4.38837 3.58627 4.57841 3.57941C7.79982 3.60293 11.0208 3.60172 14.2409 3.57573C14.3764 3.63076 14.483 3.7197 14.5605 3.84252Z" fill="#BACFFB"/>
</svg>
