<svg width="14" height="26" viewBox="0 0 14 26" fill="none" xmlns="http://www.w3.org/2000/svg">
<path fill-rule="evenodd" clip-rule="evenodd" d="M11.4821 21.7756C11.4873 22.8462 11.4821 23.9168 11.4668 24.9874C11.421 25.1149 11.3344 25.2015 11.2068 25.2474C8.63742 25.2678 6.06801 25.2678 3.49859 25.2474C3.37103 25.2015 3.28447 25.1149 3.23859 24.9874C3.22329 23.9168 3.21809 22.8462 3.22329 21.7756C3.24868 21.618 3.26397 21.455 3.26917 21.2862C3.34748 21.1525 3.46463 21.076 3.62094 21.0568C6.12918 21.0363 8.63742 21.0363 11.1457 21.0568C11.2595 21.0904 11.3463 21.1568 11.4057 21.2556C11.4369 21.4321 11.4623 21.6055 11.4821 21.7756Z" fill="#9AB9FA"/>
<path opacity="0.998" fill-rule="evenodd" clip-rule="evenodd" d="M1.44913 0.304345C5.45621 0.299237 9.46328 0.304345 13.4703 0.319639C13.6343 0.402014 13.7261 0.534584 13.7456 0.717288C13.5 7.25722 13.2602 13.798 13.0268 20.3397C12.9996 20.6808 12.9029 20.9967 12.7362 21.2879C12.6766 20.492 12.6105 19.6967 12.5374 18.902C12.2257 15.848 11.5222 12.8911 10.4268 10.0314C9.57186 7.84275 8.37892 5.86469 6.84797 4.0973C5.34639 2.39686 3.54688 1.13252 1.44913 0.304345Z" fill="#99B8F9"/>
<path opacity="0.999" fill-rule="evenodd" clip-rule="evenodd" d="M1.44905 0.304199C3.54679 1.13238 5.3463 2.39672 6.84788 4.09715C8.37883 5.86454 9.57177 7.8426 10.4267 10.0313C11.5221 12.891 12.2256 15.8479 12.5373 18.9019C12.6104 19.6966 12.6765 20.4919 12.7361 21.2878C12.4709 21.8589 12.0531 22.2767 11.482 22.5419C11.4621 22.3718 11.4367 22.1984 11.4055 22.0219C11.3462 21.9231 11.2593 21.8567 11.1455 21.8231C8.6373 21.8026 6.12906 21.8026 3.62082 21.8231C3.46451 21.8424 3.34736 21.9188 3.26905 22.0525C3.26385 22.2213 3.24856 22.3844 3.22317 22.5419C2.33764 22.0886 1.82253 21.3646 1.67846 20.3701C1.4414 13.8393 1.20189 7.30871 0.959633 0.778318C0.979209 0.468 1.14255 0.30995 1.44905 0.304199Z" fill="#BACFFB"/>
</svg>
