<svg width="24" height="28" viewBox="0 0 24 28" fill="none" xmlns="http://www.w3.org/2000/svg">
<path opacity="0.945" fill-rule="evenodd" clip-rule="evenodd" d="M2.82072 0.569538C2.86804 0.565432 2.91366 0.57208 2.95759 0.589091C3.23022 1.00244 3.60824 1.26641 4.09167 1.38099C4.43751 1.44434 4.78293 1.50945 5.12798 1.57652C5.29884 1.62599 5.44875 1.71085 5.5777 1.83071C5.68708 1.97932 5.81091 2.11619 5.94921 2.24133C5.99256 2.26635 6.0382 2.28591 6.08608 2.29999C6.19036 2.29999 6.29466 2.29999 6.39893 2.29999C6.43761 2.34887 6.44739 2.4042 6.42826 2.46619C6.20864 2.57744 5.99682 2.56102 5.79279 2.4173C5.63435 2.24406 5.47141 2.07454 5.30396 1.90892C5.25181 1.88292 5.19968 1.85672 5.14754 1.83071C4.76543 1.74194 4.38088 1.66373 3.9939 1.59607C3.46617 1.47113 3.05882 1.18096 2.77184 0.725963C2.75987 0.665153 2.77616 0.612946 2.82072 0.569538Z" fill="#9AB9FA"/>
<path opacity="0.943" fill-rule="evenodd" clip-rule="evenodd" d="M1.04144 1.07796C1.08232 1.07444 1.12143 1.08089 1.15876 1.09751C1.44257 1.53296 1.84014 1.80338 2.3515 1.90896C2.67158 1.96391 2.99096 2.02257 3.3096 2.08494C3.41204 2.11251 3.5098 2.15162 3.60289 2.20226C3.81194 2.39173 4.01398 2.58726 4.20904 2.78885C4.31202 2.82463 4.4163 2.82776 4.52189 2.79863C4.6324 2.80762 4.66824 2.86628 4.62943 2.97461C4.42029 3.08352 4.21498 3.07374 4.01351 2.94528C3.84623 2.78044 3.6833 2.61092 3.52468 2.4369C3.40412 2.36201 3.27378 2.3098 3.13362 2.28047C2.70697 2.2312 2.28984 2.13988 1.88222 2.00673C1.54354 1.86536 1.26653 1.64695 1.05122 1.3517C0.990327 1.28405 0.970774 1.20583 0.992557 1.11706C1.01201 1.10592 1.0283 1.09301 1.04144 1.07796Z" fill="#9AB9FA"/>
<path opacity="0.945" fill-rule="evenodd" clip-rule="evenodd" d="M2.95779 1.35163C3.00387 1.3485 3.04949 1.35163 3.09466 1.36141C3.40761 1.83009 3.8443 2.11049 4.40472 2.20219C4.69355 2.24345 4.98032 2.29565 5.26505 2.35861C5.3739 2.39342 5.4782 2.43917 5.5779 2.49549C5.76039 2.67792 5.9429 2.86054 6.12539 3.04297C6.18018 3.07328 6.23883 3.08951 6.30137 3.09186C6.3793 3.07563 6.45752 3.0723 6.536 3.08208C6.61787 3.16929 6.60483 3.24105 6.4969 3.29716C6.29268 3.35015 6.10368 3.3175 5.92986 3.1994C5.78647 3.04297 5.64307 2.88655 5.49969 2.73012C5.37678 2.64135 5.23991 2.58269 5.08907 2.55415C4.76834 2.50272 4.44896 2.44406 4.13097 2.37817C3.62148 2.24638 3.22064 1.96286 2.92846 1.52761C2.91295 1.46426 2.92273 1.4056 2.95779 1.35163Z" fill="#BACFFB"/>
<path opacity="0.942" fill-rule="evenodd" clip-rule="evenodd" d="M2.05826 2.15324C2.10693 2.14933 2.15257 2.15911 2.19513 2.18257C2.49396 2.6321 2.91111 2.90584 3.44653 3.0038C3.71376 3.04936 3.98098 3.09511 4.24821 3.14067C4.56485 3.20266 4.80926 3.36886 4.98145 3.63928C5.05706 3.7214 5.13852 3.79629 5.22586 3.86414C5.28188 3.88056 5.33728 3.89679 5.39206 3.91302C5.47284 3.87333 5.55432 3.87 5.63648 3.90324C5.68313 3.95623 5.68638 4.01157 5.64625 4.06944C5.43299 4.15782 5.22768 4.1416 5.03033 4.02056C4.88271 3.88271 4.74583 3.73606 4.61972 3.58062C4.48138 3.45509 4.31844 3.3802 4.13089 3.35576C3.71036 3.30687 3.29975 3.21556 2.89905 3.08201C2.50192 2.9162 2.20211 2.64559 1.9996 2.27056C2.00211 2.22266 2.02166 2.18355 2.05826 2.15324Z" fill="#BACFFB"/>
<path opacity="0.996" fill-rule="evenodd" clip-rule="evenodd" d="M23.1757 10.8935C23.0334 10.5785 22.8476 10.2916 22.6185 10.0331C22.3209 9.69956 21.9918 9.40627 21.631 9.15325C21.763 8.19534 21.4371 7.4359 20.6534 6.87531C19.7565 6.36205 18.8897 6.4076 18.0528 7.01219C17.9512 7.09099 17.86 7.17897 17.7791 7.27615C17.7797 7.2566 17.7699 7.24369 17.7498 7.23705C16.1642 6.69797 14.551 6.25802 12.9104 5.91721C10.9 5.49174 8.87305 5.16911 6.82936 4.94934C6.83096 4.84023 6.85376 4.73601 6.8978 4.63649C7.19109 4.0759 7.48439 3.51551 7.77769 2.95492C8.06433 2.63406 8.39347 2.58517 8.76512 2.80827C11.2209 3.11702 13.6455 3.58629 16.0389 4.2161C16.6416 4.37584 17.2381 4.55495 17.828 4.7538C19.2997 4.20984 20.6847 4.37604 21.983 5.25241C23.3496 6.32763 23.9199 7.73213 23.6939 9.4661C23.6077 9.97604 23.4348 10.452 23.1757 10.8935Z" fill="#BACFFB"/>
<path opacity="0.994" fill-rule="evenodd" clip-rule="evenodd" d="M6.82924 4.94946C8.87293 5.16924 10.8999 5.49187 12.9103 5.91734C14.5509 6.25815 16.164 6.6981 17.7496 7.23717C17.7698 7.24382 17.7796 7.25673 17.779 7.27628C17.2018 7.98312 17.0747 8.76525 17.3977 9.62265C17.8116 10.4793 18.496 10.929 19.4508 10.9718C20.4873 10.91 21.1912 10.395 21.5625 9.42712C21.5914 9.33718 21.6143 9.24586 21.6309 9.15338C21.9917 9.40639 22.3208 9.69969 22.6184 10.0333C22.8475 10.2918 23.0333 10.5786 23.1756 10.8936C22.4635 12.0897 21.4141 12.7969 20.0276 13.0151C19.8066 13.0364 19.5849 13.0495 19.3628 13.0542C19.2617 13.0704 19.1803 13.1193 19.1184 13.2009C18.284 15.2344 17.4499 17.2679 16.6156 19.3014C16.3335 19.7668 15.9196 19.9688 15.3739 19.9076C15.0552 22.4063 14.6772 24.8962 14.2399 27.3769C14.1861 27.3829 14.134 27.3765 14.0834 27.3573C14.07 27.3194 14.0602 27.2803 14.0541 27.24C14.0329 26.7625 14.0525 26.2868 14.1128 25.8126C14.3595 23.8084 14.6691 21.814 15.0415 19.8294C14.9992 19.7644 14.9405 19.7156 14.8656 19.6827C14.4201 19.2729 14.3126 18.7874 14.5429 18.226C15.2599 16.4793 15.9768 14.7325 16.6938 12.9858C16.8139 12.6244 16.7682 12.2854 16.5569 11.969C16.3737 11.7794 16.1977 11.5838 16.029 11.3824C15.8775 11.1773 15.7406 10.9622 15.6184 10.7372C15.5571 10.6564 15.4887 10.5813 15.413 10.5123C12.7278 8.86986 10.0425 7.2274 7.35718 5.58494C7.09998 5.5429 6.93377 5.39625 6.85857 5.14499C6.83818 5.08125 6.8284 5.01614 6.82924 4.94946Z" fill="#99B8F9"/>
<path opacity="0.989" fill-rule="evenodd" clip-rule="evenodd" d="M19.2844 7.74541C19.8792 7.71158 20.2605 7.97867 20.4283 8.54708C20.4944 9.11588 20.2631 9.50381 19.7342 9.71049C19.1075 9.82918 18.6871 9.59122 18.473 8.9968C18.3758 8.3365 18.6462 7.91943 19.2844 7.74541Z" fill="#9AB9FA"/>
</svg>
