<svg width="20" height="20" viewBox="0 0 20 20" fill="none" xmlns="http://www.w3.org/2000/svg">
<g clip-path="url(#clip0_1687_19747)">
<path d="M3.33203 18.3335C3.33203 16.5654 4.03441 14.8697 5.28465 13.6195C6.5349 12.3692 8.23059 11.6668 9.9987 11.6668C11.7668 11.6668 13.4625 12.3692 14.7127 13.6195C15.963 14.8697 16.6654 16.5654 16.6654 18.3335H14.9987C14.9987 17.0074 14.4719 15.7356 13.5342 14.798C12.5965 13.8603 11.3248 13.3335 9.9987 13.3335C8.67262 13.3335 7.40085 13.8603 6.46316 14.798C5.52548 15.7356 4.9987 17.0074 4.9987 18.3335H3.33203ZM9.9987 10.8335C7.2362 10.8335 4.9987 8.596 4.9987 5.8335C4.9987 3.071 7.2362 0.833496 9.9987 0.833496C12.7612 0.833496 14.9987 3.071 14.9987 5.8335C14.9987 8.596 12.7612 10.8335 9.9987 10.8335ZM9.9987 9.16683C11.8404 9.16683 13.332 7.67516 13.332 5.8335C13.332 3.99183 11.8404 2.50016 9.9987 2.50016C8.15703 2.50016 6.66536 3.99183 6.66536 5.8335C6.66536 7.67516 8.15703 9.16683 9.9987 9.16683Z" fill="#888D91"/>
</g>
<defs>
<clipPath id="clip0_1687_19747">
<rect width="20" height="20" fill="white"/>
</clipPath>
</defs>
</svg>
